HIERARCHY
ROOT root
{
	OFFSET 0.000000 0.000000 0.000000
	CHANNELS 6 Xposition Yposition Zposition Zrotation Yrotation Xrotation
	JOINT lhip
	{
		OFFSET 0.058581 -0.082280 -0.017664
		CHANNELS 3 Zrotation Yrotation Xrotation
		JOINT lknee
		{
			OFFSET 0.043451 -0.386469 0.008037
			CHANNELS 3 Zrotation Yrotation Xrotation
			JOINT lankle
			{
				OFFSET -0.014790 -0.426874 -0.037428
				CHANNELS 3 Zrotation Yrotation Xrotation
				JOINT ltoe
				{
					OFFSET 0.041054 -0.060286 0.122042
					CHANNELS 3 Zrotation Yrotation Xrotation
					End Site
					{
						OFFSET 0.000000 0.000000 0.000000
					}
				}
			}
		}
	}
	JOINT rhip
	{
		OFFSET -0.060310 -0.090513 -0.013543
		CHANNELS 3 Zrotation Yrotation Xrotation
		JOINT rknee
		{
			OFFSET -0.043257 -0.383688 -0.004843
			CHANNELS 3 Zrotation Yrotation Xrotation
			JOINT rankle
			{
				OFFSET 0.019056 -0.420046 -0.034562
				CHANNELS 3 Zrotation Yrotation Xrotation
				JOINT rtoe
				{
					OFFSET -0.034840 -0.062106 0.130323
					CHANNELS 3 Zrotation Yrotation Xrotation
					End Site
					{
						OFFSET 0.000000 0.000000 0.000000
					}
				}
			}
		}
	}
	JOINT lowerback
	{
		OFFSET 0.004439 0.124404 -0.038385
		CHANNELS 3 Zrotation Yrotation Xrotation
		JOINT upperback
		{
			OFFSET 0.004488 0.137956 0.026820
			CHANNELS 3 Zrotation Yrotation Xrotation
			JOINT chest
			{
				OFFSET -0.002265 0.056032 0.002855
				CHANNELS 3 Zrotation Yrotation Xrotation
				JOINT lowerneck
				{
					OFFSET -0.013390 0.211636 -0.033468
					CHANNELS 3 Zrotation Yrotation Xrotation
					JOINT upperneck
					{
						OFFSET 0.010113 0.088937 0.050410
						CHANNELS 3 Zrotation Yrotation Xrotation
						End Site
						{
							OFFSET 0.000000 0.000000 0.000000
						}
					}
				}
				JOINT lclavicle
				{
					OFFSET 0.071702 0.114000 -0.018898
					CHANNELS 3 Zrotation Yrotation Xrotation
					JOINT lshoulder
					{
						OFFSET 0.122921 0.045205 -0.019046
						CHANNELS 3 Zrotation Yrotation Xrotation
						JOINT lelbow
						{
							OFFSET 0.255332 -0.015649 -0.022946
							CHANNELS 3 Zrotation Yrotation Xrotation
							JOINT lwrist
							{
								OFFSET 0.265709 0.012698 -0.007375
								CHANNELS 3 Zrotation Yrotation Xrotation
								End Site
								{
									OFFSET 0.000000 0.000000 0.000000
								}
							}
						}
					}
				}
				JOINT rclavicle
				{
					OFFSET -0.082954 0.112472 -0.023707
					CHANNELS 3 Zrotation Yrotation Xrotation
					JOINT rshoulder
					{
						OFFSET -0.113228 0.046853 -0.008472
						CHANNELS 3 Zrotation Yrotation Xrotation
						JOINT relbow
						{
							OFFSET -0.260127 -0.014369 -0.031269
							CHANNELS 3 Zrotation Yrotation Xrotation
							JOINT rwrist
							{
								OFFSET -0.269108 0.006794 -0.006027
								CHANNELS 3 Zrotation Yrotation Xrotation
								End Site
								{
									OFFSET 0.000000 0.000000 0.000000
								}
							}
						}
					}
				}
			}
		}
	}
}
MOTION
Frames: 14
Frame Time: 0.033333
-0.224997 0.954898 1.000481 -76.161933 -0.825195 96.643055 9.968256 9.432496 12.720354 1.884160 -1.529641 9.457396 -10.676893 10.881022 22.073261 0.000000 -0.000000 0.000000 3.194250 -3.415268 -6.275378 2.575519 -8.439695 0.878637 2.060962 -7.299243 -8.250964 0.000000 -0.000000 0.000000 1.756916 -3.111604 5.763053 3.237888 -7.601625 -1.826046 2.180638 -1.090192 -3.257621 -5.047027 1.139884 -3.152187 2.204779 -11.469606 -1.155806 24.387231 -28.710312 -22.601828 -4.797426 -43.411844 -14.925423 26.627467 -37.539554 -14.650832 43.244446 -32.618554 -16.442566 -19.478896 29.935733 -23.913432 -4.905112 51.277745 -30.851412 -47.786025 46.558813 -35.706695 -34.426751 24.774580 -9.892515 
-0.225384 0.955695 1.000674 -76.130487 -0.970000 97.091554 9.880983 9.557784 12.297291 1.894688 -0.900546 9.406205 -11.027472 10.355571 22.091841 0.000000 -0.000000 0.000000 3.161513 -3.194848 -6.666520 2.499918 -8.806501 0.751752 1.846985 -7.100255 -8.125262 0.000000 -0.000000 0.000000 1.867955 -2.993281 6.157527 3.200428 -7.559308 -1.701273 1.976358 -0.829981 -3.335136 -5.432140 1.052921 -2.681124 2.047537 -12.283863 -1.138408 24.255585 -28.563106 -23.036736 -4.191166 -43.463981 -15.480222 27.628050 -38.464279 -16.720355 42.578895 -33.546469 -16.102097 -19.200227 29.731375 -23.989578 -6.409683 51.205643 -32.448095 -58.544398 49.562879 -46.490637 -36.422567 24.994072 -12.977924 
-0.225318 0.956731 1.001033 -76.029922 -1.254403 97.612018 9.590707 9.740912 11.726738 1.965458 -0.947640 9.306282 -11.142416 10.052905 22.237887 0.000000 -0.000000 0.000000 3.039293 -3.008050 -7.213480 2.386223 -8.882941 0.635423 1.736984 -7.303004 -7.898197 0.000000 -0.000000 0.000000 1.844046 -2.804987 6.612697 3.141412 -7.414319 -1.798107 1.705096 -0.633918 -3.233347 -5.796808 0.767722 -2.741922 2.025989 -13.130696 -1.274227 24.664344 -28.477769 -23.499857 -3.371583 -43.437403 -15.989627 28.496067 -39.072293 -17.446079 44.165780 -33.081627 -16.492355 -19.225687 29.667280 -24.366262 -7.587653 51.644523 -33.941411 -69.414723 51.397435 -57.558712 -37.939604 24.169289 -17.837572 
-0.225311 0.957676 1.001435 -76.117547 -1.498934 98.142475 9.266818 9.756157 11.242319 1.979315 -0.778533 9.174760 -11.182205 9.773403 22.464201 0.000000 -0.000000 0.000000 2.989695 -2.908942 -7.789791 2.204745 -8.769274 0.578727 1.767039 -7.285975 -7.647821 0.000000 -0.000000 0.000000 1.810105 -2.485881 7.062337 2.971553 -7.137135 -1.897286 1.512399 -0.210587 -3.094493 -6.091966 0.139721 -2.998766 2.247057 -13.932110 -1.821618 25.328600 -28.309552 -24.472439 -3.040916 -44.160238 -16.243672 29.271581 -38.896287 -18.317018 44.965253 -32.930976 -16.690342 -19.490319 29.824213 -24.644362 -8.636503 51.080096 -34.709772 -79.414021 52.341760 -67.534032 -38.019943 22.998220 -21.930219 
-0.225172 0.958806 1.001848 -75.968701 -1.784526 98.627317 8.961327 9.635263 10.695642 1.971840 -0.766215 9.093918 -11.306462 9.604656 22.685419 0.000000 -0.000000 0.000000 2.761595 -2.952097 -8.245826 2.325515 -9.089493 0.346371 1.949736 -7.132420 -7.528881 0.000000 -0.000000 0.000000 1.655274 -2.058050 7.548258 2.836386 -6.926373 -1.897128 1.506830 0.122673 -3.123997 -6.292635 0.257553 -3.277550 2.109961 -14.312426 -2.250702 25.960610 -28.541149 -25.381392 -2.398186 -44.444975 -16.542509 30.042896 -38.955581 -19.351210 45.557065 -33.083814 -16.695730 -19.681232 30.247290 -25.059130 -9.284764 50.832361 -35.055278 -85.758552 52.325317 -73.695008 -37.793556 23.398132 -23.799809 
-0.225117 0.960232 1.001963 -75.719083 -2.040653 99.123238 8.747916 9.653709 10.023280 1.993064 -1.046548 9.125735 -11.217474 9.468079 22.936371 0.000000 -0.000000 0.000000 2.722745 -3.213279 -8.804588 2.311239 -8.851406 0.270853 1.778700 -7.358360 -7.430425 0.000000 -0.000000 0.000000 1.626996 -1.914973 8.123895 2.708454 -6.737365 -2.420773 1.365111 0.477089 -2.940207 -6.644701 -0.314435 -3.754721 2.237163 -14.994287 -2.733856 26.507153 -28.175465 -25.928880 -1.885875 -45.071404 -16.886797 30.236547 -38.990660 -18.804401 48.146225 -32.244098 -17.735485 -19.958862 30.579869 -25.185369 -9.671516 50.886331 -35.560199 -86.051662 52.146245 -73.293368 -38.789648 23.667553 -24.219354 
-0.225233 0.961847 1.001889 -75.430351 -2.142851 99.438024 8.829415 9.388429 9.588190 1.810583 -0.977175 9.173659 -11.317349 9.403844 22.861144 0.000000 -0.000000 0.000000 2.771530 -3.191591 -9.162037 2.269977 -9.089121 0.253463 1.821742 -7.134414 -7.435113 0.000000 -0.000000 0.000000 1.754062 -1.813757 8.494445 2.451106 -6.391331 -2.439729 1.300829 0.610554 -3.011085 -6.672975 -0.267034 -4.276359 2.274821 -15.102623 -2.940432 26.893443 -27.692388 -26.476766 -1.894508 -45.880633 -17.075407 31.128087 -39.016680 -19.575484 46.989501 -32.295271 -17.618115 -20.285062 30.516040 -25.326221 -8.904015 51.292995 -35.124250 -79.997468 51.416786 -68.110034 -38.543370 23.413670 -24.553697 
-0.225478 0.962866 1.001912 -75.027279 -2.335015 99.647750 8.695269 9.061416 9.313183 1.771784 -1.503406 9.063457 -11.253166 9.853165 22.842934 0.000000 -0.000000 0.000000 2.694737 -3.089678 -9.337465 2.259996 -9.010819 0.185083 1.670249 -7.740814 -7.377977 0.000000 -0.000000 0.000000 1.651910 -1.923191 8.636619 2.199765 -6.105160 -2.500751 1.355874 0.557196 -2.853205 -6.578623 -0.929815 -4.793427 2.686555 -15.386074 -3.687365 27.183402 -27.485845 -26.620381 -1.394221 -46.400420 -16.910229 31.595347 -38.707862 -19.830050 48.738058 -31.789726 -18.591109 -20.599219 30.879362 -25.337937 -7.956801 51.303159 -34.235074 -68.369026 49.426439 -59.160318 -37.675633 21.722387 -25.338962 
-0.226300 0.964329 1.001667 -74.569155 -2.265767 99.789906 9.022531 8.999899 9.150328 1.696995 -1.961777 8.933143 -11.169733 10.000520 22.678041 0.000000 -0.000000 0.000000 2.942200 -3.306569 -9.458592 2.357966 -9.005425 0.195875 1.420059 -8.000748 -7.393442 0.000000 -0.000000 0.000000 1.983858 -2.293608 8.691958 1.727931 -5.869351 -2.750831 1.308385 0.557823 -2.910758 -6.701218 -1.322932 -5.165718 3.296779 -14.951979 -3.952707 27.196319 -27.421791 -26.477791 -1.461290 -46.825787 -16.854229 32.081012 -38.398180 -19.289040 49.168898 -31.359268 -19.186051 -20.920499 31.543571 -24.882919 -7.241050 51.484370 -34.252055 -53.506288 44.643708 -47.048907 -37.593495 20.246499 -25.188509 
-0.227338 0.966406 1.001334 -74.103840 -2.069466 99.991406 9.575849 8.315827 9.089225 1.278053 -2.242703 8.634456 -10.782635 10.230745 22.982122 0.000000 -0.000000 0.000000 3.414520 -3.399351 -9.537209 2.366966 -8.405388 0.088452 0.864446 -9.211234 -7.407614 0.000000 -0.000000 0.000000 2.349032 -2.504390 8.193399 1.268011 -5.567830 -2.567695 1.083451 0.686141 -2.894024 -6.409851 -1.950030 -5.845886 4.223572 -14.906992 -4.300456 27.180441 -27.304240 -26.560035 -1.656564 -48.127849 -16.782157 31.476896 -37.780619 -17.329981 52.286176 -31.095258 -20.875843 -21.325538 32.361395 -24.288418 -6.492629 50.833672 -33.373966 -43.949075 35.109254 -32.060249 -40.888444 25.388457 -9.437158 
-0.228591 0.967382 1.001622 -73.407599 -2.200701 99.910091 9.718897 7.796697 9.162691 1.266008 -2.581962 8.355363 -10.705276 10.265867 23.068624 0.000000 -0.000000 0.000000 3.366680 -3.496796 -9.210006 2.455486 -8.599690 -0.207648 0.782397 -9.631699 -7.536513 0.000000 -0.000000 0.000000 2.124014 -2.377769 8.113701 1.269376 -5.723036 -2.810583 0.963198 0.844375 -2.615576 -5.803124 -1.460206 -7.205654 4.844613 -15.780619 -4.230634 27.635848 -27.151892 -26.958203 -2.629624 -49.610882 -16.305718 30.624155 -36.840668 -15.950003 54.860663 -31.162902 -21.366282 -21.043193 31.818842 -23.779883 -4.440240 50.807309 -31.726363 -43.934648 33.378677 -29.150259 -43.242894 25.258775 -4.467348 
-0.229837 0.968759 1.001432 -72.602928 -2.256528 99.912878 10.077343 7.619063 8.957973 1.250792 -2.983961 8.341420 -11.117871 10.178476 23.371394 0.000000 -0.000000 0.000000 3.486408 -3.471695 -8.995400 2.455909 -9.059859 -0.488453 0.518089 -9.958191 -7.556790 0.000000 -0.000000 0.000000 1.817828 -2.412016 7.880272 1.604924 -5.838441 -3.228399 1.334201 0.315310 -2.706849 -5.881654 -1.148998 -7.768518 4.202485 -15.922979 -3.870208 27.899326 -26.955220 -26.160871 -3.710516 -49.046365 -16.053191 31.180676 -36.999148 -15.249898 55.045005 -30.225313 -21.538425 -22.002516 31.536131 -25.203147 -2.760370 53.559033 -31.131119 -42.122548 30.191046 -27.154556 -44.126084 25.141049 -4.386034 
-0.231224 0.969008 1.001131 -72.317009 -2.023279 99.825189 10.492732 7.639456 9.180889 1.215429 -3.476425 8.239898 -11.386904 10.356583 23.428759 0.000000 -0.000000 0.000000 3.620630 -3.651422 -8.513158 2.924110 -8.861928 -0.865523 0.647957 -10.304132 -8.038028 0.000000 -0.000000 0.000000 2.315255 -2.731956 7.237461 1.504097 -5.741756 -3.843822 1.266288 -0.004859 -2.623848 -5.451377 -1.572786 -7.528958 3.522724 -14.928996 -2.449694 27.443377 -26.930955 -25.386267 -4.033834 -48.488412 -15.532950 30.083368 -37.210894 -15.463310 56.771163 -29.517539 -23.311111 -23.610949 31.689802 -25.828639 -2.639919 54.283505 -30.615814 -38.695916 27.035754 -25.713243 -45.202841 24.723528 -5.326116 
-0.233036 0.969136 1.000644 -72.722691 -1.689866 99.386725 10.680679 7.548641 10.079174 1.487178 -3.155246 7.893741 -11.306990 10.514566 23.327976 0.000000 -0.000000 0.000000 3.762816 -3.786054 -7.658689 3.357260 -9.127887 -1.214854 0.743108 -9.638761 -8.446358 0.000000 -0.000000 0.000000 2.876217 -2.930349 6.838230 1.104129 -5.422506 -4.114807 1.287303 0.051333 -2.858158 -4.848484 -2.067290 -6.476927 4.019383 -14.100280 -1.476051 26.782102 -26.534166 -24.651814 -5.275619 -48.066426 -15.300304 30.671116 -38.389330 -18.713220 52.669445 -28.649404 -24.292540 -24.490364 31.714760 -25.931022 -2.694721 55.042148 -30.950246 -35.693174 25.024421 -24.093824 -44.318669 25.320797 -5.335315 
